<svg width="22" height="22" viewBox="0 0 22 22" fill="none" xmlns="http://www.w3.org/2000/svg">
<circle cx="11" cy="11" r="10.5" stroke="white"/>
<path d="M9.97727 13.7273V13.6591C9.98485 12.9356 10.0606 12.3598 10.2045 11.9318C10.3485 11.5038 10.553 11.1572 10.8182 10.892C11.0833 10.6269 11.4015 10.3826 11.7727 10.1591C11.9962 10.0227 12.197 9.86174 12.375 9.67614C12.553 9.48674 12.6932 9.26894 12.7955 9.02273C12.9015 8.77652 12.9545 8.50379 12.9545 8.20455C12.9545 7.83333 12.8674 7.51136 12.6932 7.23864C12.5189 6.96591 12.286 6.75568 11.9943 6.60795C11.7027 6.46023 11.3788 6.38636 11.0227 6.38636C10.7121 6.38636 10.4129 6.45076 10.125 6.57955C9.83712 6.70833 9.59659 6.91098 9.40341 7.1875C9.21023 7.46401 9.09848 7.82576 9.06818 8.27273H7.63636C7.66667 7.62879 7.83333 7.07765 8.13636 6.61932C8.44318 6.16098 8.84659 5.81061 9.34659 5.56818C9.85038 5.32576 10.4091 5.20455 11.0227 5.20455C11.6894 5.20455 12.2689 5.33712 12.7614 5.60227C13.2576 5.86742 13.6402 6.23106 13.9091 6.69318C14.1818 7.1553 14.3182 7.68182 14.3182 8.27273C14.3182 8.68939 14.2538 9.06629 14.125 9.40341C14 9.74053 13.8182 10.0417 13.5795 10.3068C13.3447 10.572 13.0606 10.8068 12.7273 11.0114C12.3939 11.2197 12.1269 11.4394 11.9261 11.6705C11.7254 11.8977 11.5795 12.1686 11.4886 12.483C11.3977 12.7973 11.3485 13.1894 11.3409 13.6591V13.7273H9.97727ZM10.7045 17.0909C10.4242 17.0909 10.1837 16.9905 9.98295 16.7898C9.7822 16.589 9.68182 16.3485 9.68182 16.0682C9.68182 15.7879 9.7822 15.5473 9.98295 15.3466C10.1837 15.1458 10.4242 15.0455 10.7045 15.0455C10.9848 15.0455 11.2254 15.1458 11.4261 15.3466C11.6269 15.5473 11.7273 15.7879 11.7273 16.0682C11.7273 16.2538 11.6799 16.4242 11.5852 16.5795C11.4943 16.7348 11.3712 16.8598 11.2159 16.9545C11.0644 17.0455 10.8939 17.0909 10.7045 17.0909Z" fill="white"/>
</svg>
